<svg viewBox="0 0 512 512" fill="#F59E0B" xmlns="http://www.w3.org/2000/svg">
  <defs>
    <mask id="logo-mask">
      <rect width="512" height="512" fill="white" />
      {/* Visor cutout in helmet */}
      <path d="M 275 102 L 314 114 L 308 138 L 270 124 Z" fill="black" stroke="black" strokeWidth="3" strokeLinejoin="round" />
      {/* Lightning cutout in battery box */}
      <polygon points="126,234 94,272 116,272 104,310 138,264 116,264" fill="black" />
    </mask>
  </defs>
  
  <g mask="url(#logo-mask)">
    {/* Battery (Bornes + Tapa + Cuerpo) */}
    <rect x="35" y="218" width="162" height="106" rx="4" />
    <rect x="28" y="198" width="176" height="20" rx="3" />
    <rect x="46" y="188" width="22" height="10" rx="1.5" />
    <rect x="51" y="180" width="12" height="8" rx="1" />
    <rect x="164" y="188" width="22" height="10" rx="1.5" />
    <rect x="169" y="180" width="12" height="8" rx="1" />
    
    {/* Soporte Parrilla */}
    <rect x="15" y="324" width="195" height="10" rx="2" />
    
    {/* Tubo de Escape */}
    <path d="M 12 344 L 54 344" stroke="#F59E0B" strokeWidth="12" strokeLinecap="round" />
    
    {/* Asiento y Cuerpo de la Moto */}
    <path d="M 210 324 L 285 324 C 295 324, 300 332, 298 342 L 292 384 L 210 384 Z" />
    
    {/* Conductor (Cuerpo, Cabeza, Brazos, Piernas, Pies) */}
    <circle cx="275" cy="115" r="48" />
    <path d="M 252 161 Q 256 135, 270 144" stroke="#F59E0B" strokeWidth="16" strokeLinecap="round" />
    <path d="M 248 160 C 220 180, 210 240, 215 310 L 290 310 C 285 270, 280 240, 255 160 Z" />
    <path d="M 248 175 C 285 195, 305 210, 365 228" fill="none" stroke="#F59E0B" strokeWidth="28" strokeLinecap="round" strokeLinejoin="round" />
    <path d="M 225 305 Q 340 312, 340 385" fill="none" stroke="#F59E0B" strokeWidth="32" strokeLinecap="round" strokeLinejoin="round" />
    <path d="M 330 384 L 375 384" stroke="#F59E0B" strokeWidth="22" strokeLinecap="round" />
    
    {/* Plataforma de Pies y Guardabarros / Frontal */}
    <path d="M 215 396 L 360 396" stroke="#F59E0B" strokeWidth="24" strokeLinecap="round" />
    <path d="M 355 396 L 415 285" stroke="#F59E0B" strokeWidth="24" strokeLinecap="round" />
    <path d="M 412 285 L 388 235" stroke="#F59E0B" strokeWidth="20" strokeLinecap="round" />
    <path d="M 354 246 C 360 240, 392 232, 388 235 L 392 258" stroke="#F59E0B" strokeWidth="18" fill="none" strokeLinecap="round" strokeLinejoin="round" />
    
    {/* Ruedas */}
    <circle cx="150" cy="410" r="36" stroke="#F59E0B" strokeWidth="24" fill="none" />
    <circle cx="440" cy="410" r="36" stroke="#F59E0B" strokeWidth="24" fill="none" />
  </g>
</svg>
